<?xml version="1.0" encoding="utf-8"?>
<!-- Generator: Adobe Illustrator 20.1.0, SVG Export Plug-In . SVG Version: 6.00 Build 0)  -->
<svg version="1.1" id="Ebene_1" xmlns="http://www.w3.org/2000/svg" xmlns:xlink="http://www.w3.org/1999/xlink" x="0px" y="0px"
	 viewBox="0 0 952.7 205" style="enable-background:new 0 0 952.7 205;" xml:space="preserve">
<style type="text/css">
	.st0{fill:#006633;}
	.st1{enable-background:new    ;}
</style>
<title>sia-logo</title>
<path class="st0" d="M0,64.8c0,0,35.8-21.5,49.8-29s25-8.8,31-9.6s52.6-3.8,59.7-4.2s17-3.2,30.6-9c9-4,20.1-10.3,20.1-10.3l3.1-2.7
	l10.4,14.7c0,0-14.7,12.1-23.3,15.7s-21.1,7.5-30.9,8.3s-53.3,4-53.3,4S83.1,69,81.6,87.8c-0.5,7,0.2,14,2.1,20.7l41.5-9.4
	c0,0,0.4-16,2.7-22.3c2.2-6.3,10.8-23.9,10.8-23.9l1.2-2.5l15.6,7.9c0,0-6.9,12.8-9,22.9c-1.6,7.8-2.3,15.7-1.9,23.7
	c0.3,4.5,3.6,25.2,3.6,33.3c0,9.9-3,19.5-8.7,27.6c-6.6,9.1-17.7,23.2-17.7,23.2l-14.4-10.3c0,0,22.6-24,22.6-36.4s-1.5-21.4-2-22.9
	c0,0.1-0.1-0.6-0.9-0.4s-40,9.3-40,9.3s2.3,15.7-3,27.6c-3.3,7.3-7.6,14.2-12.9,20.3l-23,29l-14.3-9.4c0,0,24.7-30,32.7-44.3
	c6-15-0.2-29.2-3.2-46.3c-3-17.2,3.2-34.1,5.5-40.6S75.6,46,75.6,46s-4.6-1.1-20,8.2S9.8,78.5,9.8,78.5L0,64.8z"/>
<g class="st1">
	<path class="st0" d="M207.4,115.6c2.3,0.8,4.6,1.5,7.1,2.2c2.5,0.6,5.5,0.9,9.1,0.9c5.6,0,9.9-1.2,12.6-3.5
		c2.8-2.3,4.2-5.4,4.2-9.3c0-1.9-0.3-3.6-0.9-5c-0.6-1.4-1.5-2.6-2.6-3.6c-1.2-1-2.6-1.9-4.4-2.7s-3.8-1.7-6.1-2.7l-5.9-2.4
		c-2-0.8-3.8-1.7-5.5-2.7c-1.7-1-3.1-2.2-4.3-3.7c-1.2-1.4-2.2-3.1-2.8-5c-0.7-1.9-1-4.1-1-6.8c0-6.3,2.1-11.2,6.4-14.7
		c4.3-3.5,10.3-5.3,18-5.3c3.3,0,6.4,0.3,9.4,0.8c3,0.6,5.6,1.2,7.8,2.1c-0.3,2.9-1.1,5.7-2.3,8.6c-1.9-0.7-4-1.3-6.5-1.9
		c-2.4-0.5-5.2-0.8-8.3-0.8c-4.3,0-7.7,0.9-10,2.6c-2.3,1.8-3.5,4.4-3.5,7.9c0,1.4,0.3,2.7,0.9,3.9c0.6,1.1,1.4,2.1,2.3,3
		c1,0.9,2.1,1.6,3.4,2.3c1.3,0.7,2.7,1.3,4.1,1.9l5.8,2.3c2.8,1.1,5.2,2.3,7.3,3.5c2.1,1.2,4,2.6,5.5,4.2c1.5,1.6,2.7,3.5,3.5,5.7
		c0.8,2.2,1.2,4.8,1.2,7.7c0,7.1-2.4,12.7-7.3,16.8c-4.9,4.1-11.7,6.1-20.5,6.1c-2.1,0-4.1-0.1-5.8-0.2c-1.7-0.1-3.3-0.3-4.8-0.6
		c-1.5-0.3-2.9-0.6-4.3-1c-1.4-0.4-2.8-0.9-4.2-1.3c0.1-1.5,0.4-3.1,0.9-4.6C206.3,118.7,206.8,117.1,207.4,115.6z"/>
	<path class="st0" d="M265.5,52.6c0.8-0.1,1.7-0.2,2.6-0.3c0.9-0.1,1.8-0.1,2.7-0.1c0.9,0,1.8,0,2.7,0.1c0.9,0.1,1.8,0.2,2.6,0.3
		v74.2c-0.8,0.1-1.7,0.2-2.5,0.3c-0.9,0.1-1.8,0.1-2.7,0.1c-0.9,0-1.8,0-2.7-0.1c-0.9-0.1-1.8-0.2-2.5-0.3V52.6z"/>
	<path class="st0" d="M330.7,109.7h-28.2l-5.1,17.1c-0.9,0.1-1.8,0.2-2.7,0.3c-0.9,0.1-1.8,0.1-2.7,0.1c-1,0-1.9,0-2.8-0.1
		c-0.9-0.1-1.8-0.2-2.5-0.3l24.2-74.2c0.9-0.1,1.9-0.2,2.9-0.3c1-0.1,2.1-0.1,3.2-0.1c1,0,2,0,3,0.1c1,0.1,2,0.2,3,0.3l24.1,74.2
		c-0.8,0.1-1.8,0.2-2.8,0.3c-1,0.1-2,0.1-3,0.1c-0.9,0-1.8,0-2.7-0.1c-0.9-0.1-1.8-0.2-2.6-0.3L330.7,109.7z M305.4,100.5H328
		l-11.4-37.9L305.4,100.5z"/>
	<path class="st0" d="M418.9,109.7h-28.2l-5.1,17.1c-0.9,0.1-1.8,0.2-2.7,0.3c-0.9,0.1-1.8,0.1-2.7,0.1c-1,0-1.9,0-2.8-0.1
		c-0.9-0.1-1.8-0.2-2.5-0.3l24.2-74.2c0.9-0.1,1.9-0.2,2.9-0.3c1-0.1,2.1-0.1,3.2-0.1c1,0,2,0,3,0.1c1,0.1,2,0.2,3,0.3l24.1,74.2
		c-0.8,0.1-1.8,0.2-2.8,0.3c-1,0.1-2,0.1-3,0.1c-0.9,0-1.8,0-2.7-0.1c-0.9-0.1-1.8-0.2-2.6-0.3L418.9,109.7z M393.5,100.5h22.6
		l-11.4-37.9L393.5,100.5z"/>
	<path class="st0" d="M445,51.2c0.8-0.1,1.6-0.2,2.5-0.3c0.9-0.1,1.8-0.1,2.5-0.1c0.8,0,1.6,0,2.5,0.1c0.9,0.1,1.8,0.2,2.5,0.3v59.7
		c0,1.9,0.2,3.4,0.5,4.5c0.3,1.1,0.8,1.9,1.4,2.5c0.6,0.6,1.3,1,2.1,1.1c0.8,0.2,1.6,0.3,2.5,0.3c0.6,0,1.3,0,2.1-0.1
		c0.8-0.1,1.5-0.2,2-0.3c0.6,2.4,0.9,5,0.9,7.8c-1,0.3-2.1,0.6-3.5,0.7c-1.4,0.1-2.7,0.2-3.8,0.2c-2,0-3.9-0.2-5.6-0.7
		c-1.7-0.5-3.2-1.3-4.5-2.4c-1.3-1.1-2.3-2.6-3.1-4.4c-0.8-1.9-1.1-4.2-1.1-6.9V51.2z"/>
	<path class="st0" d="M483.6,102.9c0.1,5.8,1.6,10,4.5,12.7c2.9,2.7,7.1,4,12.6,4c4.9,0,9.5-0.9,13.9-2.6c0.5,1,1,2.3,1.3,3.8
		c0.3,1.5,0.5,2.9,0.6,4.4c-2.3,1-4.8,1.7-7.5,2.2c-2.7,0.5-5.7,0.7-9,0.7c-4.8,0-8.9-0.7-12.4-2c-3.4-1.3-6.3-3.2-8.5-5.7
		c-2.2-2.4-3.9-5.3-4.9-8.7c-1-3.3-1.5-7-1.5-11c0-3.9,0.5-7.6,1.5-11c1-3.4,2.5-6.4,4.6-8.9c2.1-2.5,4.7-4.5,7.8-6
		c3.1-1.5,6.8-2.2,11.1-2.2c3.6,0,6.8,0.6,9.6,1.9c2.8,1.2,5.1,2.9,6.9,5.1s3.3,4.7,4.2,7.7s1.4,6.2,1.4,9.8c0,1,0,2-0.1,3
		c-0.1,1.1-0.1,2-0.2,2.7H483.6z M509.9,95.3c0-1.9-0.3-3.8-0.8-5.5c-0.5-1.8-1.3-3.3-2.3-4.6c-1-1.3-2.3-2.4-3.8-3.1
		c-1.5-0.8-3.4-1.2-5.5-1.2c-4.2,0-7.4,1.3-9.7,3.8c-2.2,2.5-3.6,6.1-4.1,10.6H509.9z"/>
	<path class="st0" d="M533.4,73.9c0.8-0.1,1.5-0.2,2.2-0.3c0.7-0.1,1.5-0.1,2.2-0.1c0.8,0,1.5,0,2.1,0.1c0.7,0.1,1.4,0.2,2.1,0.3
		c0.2,1,0.4,2.4,0.6,4.1c0.2,1.7,0.3,3.1,0.3,4.3c0.6-1.2,1.4-2.4,2.3-3.6c0.9-1.1,2-2.2,3.3-3c1.3-0.9,2.7-1.6,4.4-2.2
		c1.7-0.5,3.5-0.8,5.5-0.8c4.1,0,7.3,0.8,9.5,2.5c2.2,1.7,3.9,4,5.1,7.1c0.7-1.2,1.5-2.3,2.5-3.5c1-1.2,2.1-2.2,3.4-3.1
		c1.2-0.9,2.6-1.6,4.2-2.2c1.6-0.5,3.4-0.8,5.4-0.8c6.1,0,10.6,1.7,13.4,5.2c2.8,3.4,4.2,8.5,4.2,15.3v33.8
		c-0.8,0.1-1.6,0.2-2.6,0.3c-1,0.1-1.8,0.1-2.6,0.1c-0.8,0-1.6,0-2.5-0.1c-0.9-0.1-1.8-0.2-2.5-0.3V96.1c0-4.7-0.7-8.3-2.2-10.7
		c-1.4-2.4-3.8-3.6-7.1-3.6c-3.5,0-6.3,1.3-8.5,3.8c-2.2,2.5-3.3,6.3-3.3,11.3v29.9c-0.8,0.1-1.6,0.2-2.5,0.3
		c-0.9,0.1-1.8,0.1-2.5,0.1c-0.8,0-1.6,0-2.5-0.1c-0.9-0.1-1.8-0.2-2.5-0.3V95.4c0-4.6-0.7-8.1-2.1-10.4c-1.4-2.3-3.6-3.5-6.6-3.5
		c-1.7,0-3.3,0.4-4.9,1.1c-1.5,0.8-2.8,1.9-4,3.4c-1.1,1.5-2,3.4-2.7,5.7c-0.7,2.3-1,5-1,8v27c-0.8,0.1-1.6,0.2-2.5,0.3
		c-0.9,0.1-1.8,0.1-2.5,0.1c-0.8,0-1.6,0-2.6-0.1c-1-0.1-1.8-0.2-2.6-0.3V73.9z"/>
	<path class="st0" d="M649.5,92c0-4.1-1-6.9-3.1-8.5c-2.1-1.6-5.1-2.4-9-2.4c-2.4,0-4.7,0.2-6.8,0.6c-2.1,0.4-4.1,0.9-6.1,1.5
		c-1.3-2.3-2-5-2-8.2c2.3-0.8,4.9-1.3,7.7-1.8c2.8-0.4,5.5-0.6,8.2-0.6c6.9,0,12.1,1.6,15.7,4.7c3.6,3.1,5.4,8.1,5.4,15v33.1
		c-2.4,0.6-5.3,1.1-8.8,1.7c-3.4,0.6-7,0.9-10.5,0.9c-3.4,0-6.4-0.3-9.1-0.9c-2.7-0.6-5-1.6-6.9-3c-1.9-1.4-3.4-3.1-4.4-5.3
		c-1-2.1-1.5-4.7-1.5-7.7c0-3,0.6-5.6,1.8-7.8c1.2-2.2,2.8-4.1,4.9-5.6c2.1-1.5,4.4-2.6,7.1-3.3c2.7-0.7,5.5-1.1,8.5-1.1
		c2.2,0,4,0.1,5.4,0.2c1.4,0.1,2.6,0.2,3.6,0.4V92z M649.5,102c-1-0.1-2.3-0.3-3.9-0.4c-1.6-0.1-2.9-0.2-4-0.2
		c-4.3,0-7.5,0.8-9.8,2.4c-2.2,1.6-3.4,4-3.4,7.2c0,2.1,0.4,3.7,1.1,4.9c0.8,1.2,1.7,2.1,2.8,2.7s2.4,1,3.8,1.1
		c1.4,0.1,2.7,0.2,3.9,0.2c1.6,0,3.2-0.1,4.9-0.3c1.7-0.2,3.2-0.4,4.5-0.8V102z"/>
	<path class="st0" d="M674.9,73.9c0.8-0.1,1.5-0.2,2.2-0.3c0.7-0.1,1.5-0.1,2.2-0.1c0.8,0,1.5,0,2.1,0.1c0.7,0.1,1.4,0.2,2.1,0.3
		c0.2,1,0.4,2.4,0.6,4.2c0.2,1.8,0.3,3.2,0.3,4.4c0.7-1.2,1.6-2.3,2.6-3.5c1.1-1.2,2.3-2.2,3.7-3.1c1.4-0.9,3-1.7,4.7-2.3
		c1.8-0.6,3.8-0.9,5.9-0.9c6.1,0,10.5,1.7,13.4,5.2c2.9,3.5,4.3,8.6,4.3,15.4v33.6c-0.8,0.1-1.6,0.2-2.6,0.3c-1,0.1-1.8,0.1-2.6,0.1
		c-0.8,0-1.6,0-2.5-0.1c-0.9-0.1-1.8-0.2-2.5-0.3V96.1c0-4.9-0.8-8.5-2.3-10.8c-1.5-2.3-3.9-3.5-7.2-3.5c-1.9,0-3.8,0.3-5.5,1
		c-1.7,0.7-3.2,1.8-4.5,3.2c-1.3,1.4-2.4,3.3-3.1,5.6c-0.8,2.3-1.2,5.1-1.2,8.3v26.8c-0.8,0.1-1.6,0.2-2.5,0.3
		c-0.9,0.1-1.8,0.1-2.5,0.1c-0.8,0-1.6,0-2.6-0.1c-1-0.1-1.8-0.2-2.6-0.3V73.9z"/>
	<path class="st0" d="M762.6,92c0-4.1-1-6.9-3.1-8.5c-2.1-1.6-5.1-2.4-9-2.4c-2.4,0-4.7,0.2-6.8,0.6c-2.1,0.4-4.1,0.9-6.1,1.5
		c-1.3-2.3-2-5-2-8.2c2.3-0.8,4.9-1.3,7.7-1.8c2.8-0.4,5.5-0.6,8.2-0.6c6.9,0,12.1,1.6,15.7,4.7c3.6,3.1,5.4,8.1,5.4,15v33.1
		c-2.4,0.6-5.3,1.1-8.8,1.7c-3.4,0.6-7,0.9-10.5,0.9c-3.4,0-6.4-0.3-9.1-0.9c-2.7-0.6-5-1.6-6.9-3c-1.9-1.4-3.4-3.1-4.4-5.3
		c-1-2.1-1.5-4.7-1.5-7.7c0-3,0.6-5.6,1.8-7.8c1.2-2.2,2.8-4.1,4.9-5.6c2.1-1.5,4.4-2.6,7.1-3.3c2.7-0.7,5.5-1.1,8.5-1.1
		c2.2,0,4,0.1,5.4,0.2c1.4,0.1,2.6,0.2,3.6,0.4V92z M762.6,102c-1-0.1-2.3-0.3-3.9-0.4c-1.6-0.1-2.9-0.2-4-0.2
		c-4.3,0-7.5,0.8-9.8,2.4c-2.2,1.6-3.4,4-3.4,7.2c0,2.1,0.4,3.7,1.1,4.9c0.8,1.2,1.7,2.1,2.8,2.7s2.4,1,3.8,1.1
		c1.4,0.1,2.7,0.2,3.9,0.2c1.6,0,3.2-0.1,4.9-0.3c1.7-0.2,3.2-0.4,4.5-0.8V102z"/>
</g>
<g class="st1">
	<path class="st0" d="M800.7,119.5c1.5,0.5,3.1,1,4.7,1.4c1.6,0.4,3.6,0.6,6,0.6c3.7,0,6.5-0.8,8.3-2.3c1.8-1.5,2.7-3.6,2.7-6.1
		c0-1.3-0.2-2.3-0.6-3.3c-0.4-0.9-1-1.7-1.7-2.3c-0.8-0.7-1.7-1.3-2.9-1.8c-1.2-0.5-2.5-1.1-4-1.8l-3.9-1.6
		c-1.3-0.5-2.5-1.1-3.6-1.8c-1.1-0.7-2-1.5-2.8-2.4s-1.4-2-1.9-3.3c-0.5-1.2-0.7-2.7-0.7-4.4c0-4.1,1.4-7.3,4.2-9.7
		c2.8-2.3,6.7-3.5,11.8-3.5c2.2,0,4.2,0.2,6.2,0.5c1.9,0.4,3.7,0.8,5.2,1.4c-0.2,1.9-0.7,3.8-1.5,5.6c-1.2-0.5-2.6-0.9-4.2-1.2
		c-1.6-0.4-3.4-0.5-5.5-0.5c-2.8,0-5,0.6-6.6,1.7c-1.5,1.2-2.3,2.9-2.3,5.2c0,0.9,0.2,1.8,0.6,2.5c0.4,0.7,0.9,1.4,1.5,2
		c0.6,0.6,1.4,1.1,2.2,1.5c0.9,0.5,1.8,0.9,2.7,1.2l3.8,1.5c1.8,0.7,3.4,1.5,4.8,2.3s2.6,1.7,3.6,2.8c1,1.1,1.8,2.3,2.3,3.8
		c0.5,1.4,0.8,3.1,0.8,5.1c0,4.7-1.6,8.3-4.8,11c-3.2,2.7-7.7,4-13.5,4c-1.4,0-2.7,0-3.8-0.1c-1.1-0.1-2.2-0.2-3.2-0.4
		c-1-0.2-1.9-0.4-2.8-0.7c-0.9-0.3-1.8-0.6-2.8-0.9c0.1-1,0.3-2,0.6-3.1S800.3,120.5,800.7,119.5z"/>
</g>
<g class="st1">
	<path class="st0" d="M836.6,126.9c-0.1-0.6-0.2-1.3-0.2-1.9c-0.1-0.6-0.1-1.2-0.1-1.9s0-1.3,0.1-1.9c0.1-0.7,0.1-1.3,0.2-1.9
		c0.6-0.1,1.3-0.2,1.9-0.2c0.6,0,1.2-0.1,1.9-0.1c0.6,0,1.3,0,1.9,0.1c0.6,0,1.3,0.1,1.9,0.2c0.1,0.6,0.2,1.3,0.2,1.9
		c0.1,0.6,0.1,1.3,0.1,1.9c0,0.6,0,1.3-0.1,1.9c-0.1,0.6-0.1,1.3-0.2,1.9c-0.6,0.1-1.3,0.2-1.9,0.2c-0.6,0-1.2,0.1-1.9,0.1
		c-0.6,0-1.3,0-1.9-0.1C837.9,127,837.2,127,836.6,126.9z"/>
	<path class="st0" d="M854,78c1-0.1,1.9-0.2,2.7-0.3c0.8-0.1,1.6-0.2,2.4-0.2c0.8-0.1,1.6-0.1,2.5-0.2c0.9,0,1.8-0.1,2.8-0.1
		c2.3,0,4.6,0.2,6.8,0.7c2.3,0.5,4.3,1.2,6,2.4c1.8,1.1,3.2,2.7,4.3,4.6c1.1,1.9,1.7,4.4,1.7,7.3c0,1.8-0.3,3.4-0.9,4.8
		c-0.6,1.4-1.3,2.7-2.2,3.9c-0.9,1.1-1.9,2.1-3.1,2.9c-1.2,0.8-2.3,1.5-3.4,2.1l-0.8,0.4l14.2,20.5c-1.2,0.1-2.6,0.2-4.1,0.2
		c-1.2,0-2.4-0.1-3.7-0.2l-15.6-22.6V104l0.5-0.1c1.2-0.3,2.5-0.7,3.9-1.3c1.4-0.5,2.6-1.3,3.8-2.1c1.2-0.9,2.1-1.9,2.9-3.2
		c0.8-1.2,1.2-2.7,1.2-4.5c0-3.3-1-5.7-2.9-7.3c-1.9-1.6-4.5-2.4-7.8-2.4c-0.8,0-1.5,0-2.1,0.1c-0.7,0-1.4,0.1-2.2,0.2v43.5
		c-0.5,0-1.1,0.1-1.7,0.1c-0.6,0-1.2,0.1-1.7,0.1c-0.5,0-1.1,0-1.8,0c-0.6,0-1.2-0.1-1.8-0.2V78z"/>
	<path class="st0" d="M892.1,126.9c-0.1-0.6-0.2-1.3-0.2-1.9c-0.1-0.6-0.1-1.2-0.1-1.9s0-1.3,0.1-1.9c0.1-0.7,0.1-1.3,0.2-1.9
		c0.6-0.1,1.3-0.2,1.9-0.2c0.6,0,1.2-0.1,1.9-0.1c0.6,0,1.3,0,1.9,0.1c0.6,0,1.3,0.1,1.9,0.2c0.1,0.6,0.2,1.3,0.2,1.9
		c0.1,0.6,0.1,1.3,0.1,1.9c0,0.6,0,1.3-0.1,1.9c-0.1,0.6-0.1,1.3-0.2,1.9c-0.6,0.1-1.3,0.2-1.9,0.2c-0.6,0-1.2,0.1-1.9,0.1
		c-0.6,0-1.3,0-1.9-0.1C893.3,127,892.7,127,892.1,126.9z"/>
</g>
<g class="st1">
	<path class="st0" d="M909.5,78.1c0.5-0.1,1-0.2,1.6-0.2c0.6,0,1.2-0.1,1.8-0.1c0.6,0,1.2,0,1.8,0.1s1.2,0.1,1.7,0.2v42.6h19.1
		c0.1,0.5,0.1,1,0.2,1.6c0,0.5,0,1,0,1.5c0,1.1-0.1,2.1-0.2,3.1h-26V78.1z"/>
</g>
<g class="st1">
	<path class="st0" d="M940.8,126.9c-0.1-0.6-0.2-1.3-0.2-1.9c-0.1-0.6-0.1-1.2-0.1-1.9s0-1.3,0.1-1.9c0.1-0.7,0.1-1.3,0.2-1.9
		c0.6-0.1,1.3-0.2,1.9-0.2c0.6,0,1.2-0.1,1.9-0.1c0.6,0,1.3,0,1.9,0.1c0.6,0,1.3,0.1,1.9,0.2c0.1,0.6,0.2,1.3,0.2,1.9
		c0.1,0.6,0.1,1.3,0.1,1.9c0,0.6,0,1.3-0.1,1.9c-0.1,0.6-0.1,1.3-0.2,1.9c-0.6,0.1-1.3,0.2-1.9,0.2c-0.6,0-1.2,0.1-1.9,0.1
		s-1.3,0-1.9-0.1S941.4,127,940.8,126.9z"/>
</g>
</svg>
