<svg id="Ebene_1" data-name="Ebene 1" xmlns="http://www.w3.org/2000/svg" viewBox="0 0 952.74 204.97">
<defs>
<style>.cls-1,.cls-2,.cls-3{fill:#006633;}.cls-2{font-size:103.24px;}.cls-2,.cls-3{font-family:Aller, Aller;}.cls-3{font-size:67.8px;letter-spacing:-0.01em;}.cls-4{letter-spacing:-0.01em;}.cls-5{letter-spacing:0em;}</style>
</defs>
<title>sia-logo</title>
<path class="cls-1" d="M4,76.08s35.76-21.46,49.84-29,25-8.75,31-9.64,52.58-3.85,59.69-4.22,17-3.16,30.56-9c9-4,20.1-10.26,20.1-10.26l3.15-2.7L208.69,26S194,38.06,185.44,41.66,164.32,49.15,154.58,50s-53.27,4-53.27,4S87.09,80.3,85.64,99.15a58.25,58.25,0,0,0,2.11,20.71l41.5-9.44s.45-16,2.7-22.32,10.76-23.93,10.76-23.93l1.2-2.54,15.58,7.94s-6.87,12.85-9,22.88a94.45,94.45,0,0,0-1.95,23.67c.3,4.49,3.6,25.17,3.6,33.26a47.49,47.49,0,0,1-8.69,27.57c-6.59,9.14-17.68,23.22-17.68,23.22l-14.38-10.34s22.62-24,22.62-36.41S132.55,132,132,130.5c0,.13-.06-.6-.92-.37s-40,9.27-40,9.27,2.29,15.72-3,27.59a86.17,86.17,0,0,1-12.86,20.3l-23,29-14.29-9.43s24.73-30,32.74-44.25c6-15-.21-29.2-3.21-46.35s3.16-34.06,5.45-40.63,6.7-18.35,6.7-18.35-4.58-1.07-20,8.23S13.81,89.8,13.81,89.8Z" transform="translate(-4.02 -11.32)"/>
<text class="cls-2" transform="translate(200.15 126.86)">SIA Alemana</text>
<text class="cls-3" transform="translate(795.92 126.86)">S<tspan class="cls-4" x="36.27" y="0">.R.</tspan><tspan x="107.6" y="0">L</tspan><tspan class="cls-5" x="140.48" y="0">.</tspan></text></svg>